<?xml version="1.0" standalone="no"?><!DOCTYPE svg PUBLIC "-//W3C//DTD SVG 1.1//EN" "http://www.w3.org/Graphics/SVG/1.1/DTD/svg11.dtd"><svg t="1535613049406" class="icon" style="" viewBox="0 0 1024 1024" version="1.1" xmlns="http://www.w3.org/2000/svg" p-id="760" xmlns:xlink="http://www.w3.org/1999/xlink" width="200" height="200"><defs><style type="text/css"></style></defs><path d="M890.88 563.2C890.88 547.84 896 532.48 896 512 896 491.52 896 476.16 890.88 460.8L998.4 373.76C1008.64 363.52 1008.64 353.28 1003.52 343.04L901.12 163.84C896 158.72 885.76 153.6 870.4 158.72L742.4 209.92C716.8 189.44 686.08 174.08 655.36 158.72L634.88 25.6C640 10.24 624.64 0 614.4 0L409.6 0C399.36 0 384 10.24 384 20.48L363.52 158.72C332.8 168.96 307.2 189.44 276.48 209.92L153.6 158.72C138.24 153.6 128 158.72 117.76 168.96L15.36 348.16C10.24 353.28 15.36 368.64 25.6 378.88L133.12 460.8C133.12 476.16 128 491.52 128 512 128 532.48 128 547.84 133.12 563.2L25.6 650.24C15.36 660.48 15.36 670.72 20.48 680.96L122.88 860.16C128 865.28 138.24 870.4 153.6 865.28L281.6 814.08C307.2 834.56 337.92 849.92 368.64 865.28L389.12 998.4C389.12 1008.64 399.36 1018.88 414.72 1018.88L619.52 1018.88C629.76 1018.88 645.12 1008.64 645.12 998.4L665.6 865.28C696.32 849.92 727.04 834.56 752.64 814.08L880.64 865.28C890.88 870.4 906.24 865.28 911.36 855.04L1013.76 675.84C1018.88 665.6 1018.88 650.24 1008.64 645.12L890.88 563.2 890.88 563.2ZM512 691.2C414.72 691.2 332.8 609.28 332.8 512 332.8 414.72 414.72 332.8 512 332.8 609.28 332.8 691.2 414.72 691.2 512 691.2 609.28 609.28 691.2 512 691.2L512 691.2Z" p-id="761"></path></svg>